<?xml version="1.0" encoding="UTF-8" standalone="no"?>
<!-- Created with Inkscape (http://www.inkscape.org/) -->

<svg
   xmlns:dc="http://purl.org/dc/elements/1.1/"
   xmlns:cc="http://creativecommons.org/ns#"
   xmlns:rdf="http://www.w3.org/1999/02/22-rdf-syntax-ns#"
   xmlns:svg="http://www.w3.org/2000/svg"
   xmlns="http://www.w3.org/2000/svg"
   xmlns:sodipodi="http://sodipodi.sourceforge.net/DTD/sodipodi-0.dtd"
   xmlns:inkscape="http://www.inkscape.org/namespaces/inkscape"
   width="185.02179mm"
   height="166.43929mm"
   viewBox="0 0 655.58902 589.7455"
   id="svg3387"
   version="1.1"
   inkscape:version="0.91 r13725"
   sodipodi:docname="trumpeter2.svg"
   inkscape:export-filename="/home/algot/Documents/runeman.org/clipart/trumpeter2.png"
   inkscape:export-xdpi="54.912453"
   inkscape:export-ydpi="54.912453">
  <title
     id="title3409">Trumpeter2</title>
  <defs
     id="defs3389" />
  <sodipodi:namedview
     id="base"
     pagecolor="#ffffff"
     bordercolor="#666666"
     borderopacity="1.0"
     inkscape:pageopacity="0.0"
     inkscape:pageshadow="2"
     inkscape:zoom="0.98994949"
     inkscape:cx="200.18966"
     inkscape:cy="413.21734"
     inkscape:document-units="px"
     inkscape:current-layer="layer1"
     showgrid="false"
     fit-margin-top="0"
     fit-margin-left="0"
     fit-margin-right="0"
     fit-margin-bottom="0"
     inkscape:window-width="1366"
     inkscape:window-height="712"
     inkscape:window-x="0"
     inkscape:window-y="0"
     inkscape:window-maximized="1" />
  <metadata
     id="metadata3392">
    <rdf:RDF>
      <cc:Work
         rdf:about="">
        <dc:format>image/svg+xml</dc:format>
        <dc:type
           rdf:resource="http://purl.org/dc/dcmitype/StillImage" />
        <dc:title>Trumpeter2</dc:title>
        <dc:date>2016-07-26</dc:date>
        <dc:creator>
          <cc:Agent>
            <dc:title>Algot Runeman</dc:title>
          </cc:Agent>
        </dc:creator>
        <dc:rights>
          <cc:Agent>
            <dc:title>Algot Runeman</dc:title>
          </cc:Agent>
        </dc:rights>
        <dc:publisher>
          <cc:Agent>
            <dc:title>runeman.org</dc:title>
          </cc:Agent>
        </dc:publisher>
        <dc:identifier>trumpeter2.svg</dc:identifier>
        <cc:license
           rdf:resource="http://creativecommons.org/publicdomain/zero/1.0/" />
      </cc:Work>
      <cc:License
         rdf:about="http://creativecommons.org/publicdomain/zero/1.0/">
        <cc:permits
           rdf:resource="http://creativecommons.org/ns#Reproduction" />
        <cc:permits
           rdf:resource="http://creativecommons.org/ns#Distribution" />
        <cc:permits
           rdf:resource="http://creativecommons.org/ns#DerivativeWorks" />
      </cc:License>
    </rdf:RDF>
  </metadata>
  <g
     inkscape:label="Layer 1"
     inkscape:groupmode="layer"
     id="layer1"
     transform="translate(-20.257,-93.728206)">
    <path
       style="fill:#000000;fill-rule:evenodd;stroke:#000000;stroke-width:1px;stroke-linecap:butt;stroke-linejoin:miter;stroke-opacity:1"
       d="M 91.477255,276.89094 90.467104,264.76911 75.314816,227.39347 70.264054,211.23103 63.192986,166.78431 c 3.747111,-13.78365 4.33871,-23.46988 10.101525,-29.49747 0,0 29.506169,-31.97032 49.497479,-35.35534 20.18592,-3.417964 44.00914,-13.596568 61.61931,-3.030457 l 10.10152,6.060917 16.16244,23.23351 4.04061,10.10152 c 0,0 11.26679,10.74549 15.15229,17.37565 2.53091,4.3187 5.05076,14.14213 5.05076,14.14213 l 5.05077,14.14214 -4.04061,5.05076 0,6.06092 16.16244,17.17259 4.04061,8.08122 -2.02031,6.06091 -8.08122,5.05077 1.01015,10.10152 -6.06091,22.22336 -1.01015,11.11168 -1.01016,16.16244 c 0,0 -4.96196,8.69291 -9.09137,11.11168 -5.01557,2.93783 -17.17259,3.03045 -17.17259,3.03045 l -6.06092,0 -2.0203,8.08122 z"
       id="path3348"
       inkscape:connector-curvature="0"
       sodipodi:nodetypes="ccccccsscccsccccccccccccscccc" />
    <path
       style="fill:#000000;fill-rule:evenodd;stroke:#000000;stroke-width:1px;stroke-linecap:butt;stroke-linejoin:miter;stroke-opacity:1"
       d="m 95.517865,278.91125 -21.213201,-3.03046 -8.203051,1.01015 -12.060915,31.31473 4.101525,9.09137 -18.182746,43.43656 -12.12183,26.26397 -7.071068,16.16244 2.020305,22.22336 5.050763,38.38579 3.030457,29.29443 21.213204,41.41625 4.04061,5.05076 270.720892,1.01016 -5.05077,-20.20305 -8.08122,-24.24367 -2.0203,-8.08122 38.38579,-9.09137 15.15229,-7.07107 20.20305,-16.16244 25.25382,-34.34518 43.43656,-38.3858 49.49747,-46.46702 -34.34519,-45.45686 -28.28427,-18.18275 -27.27412,-6.06091 -14.14213,25.25381 0,3.03046 -12.12183,6.06091 -10.10153,14.14214 -7.07107,9.09137 -14.14213,12.12183 -3.03046,6.06092 -9.09137,6.06091 -2.02031,6.06092 -15.15228,3.03046 -7.07107,11.11167 -1.01016,4.04061 -16.16244,1.01016 -3.03045,-6.06092 -7.07107,0 -7.07107,-1.01015 -3.03046,-4.04061 -5.05076,4.04061 -20.20305,-3.03046 -12.12183,-4.04061 -27.27412,-23.23351 -8.08122,-18.18274 -5.05076,-8.08122 z"
       id="path3350"
       inkscape:connector-curvature="0"
       sodipodi:nodetypes="cccccccccccccccccccccccccccccccccccccccccccccccccc" />
    <path
       inkscape:connector-curvature="0"
       style="fill:#000000;fill-rule:evenodd;stroke:#000000;stroke-width:1px;stroke-linecap:butt;stroke-linejoin:miter;stroke-opacity:1"
       d="m 656.15185,128.39891 -5.05078,1.00977 c 0,0 -3.00518,5.60585 -4.06055,9.0918 -1.07321,3.54488 -2,9.11133 -2,9.11133 l -7.07031,9.07031 -24.24414,14.14258 -35.35547,8.08203 -105.05664,22.22265 -10.09961,-6.06054 2.01953,-5.05078 4.04101,-7.07227 -9.09179,6.0625 -1.00977,5.05078 -7.07226,-2.02148 -4.03907,-14.14063 -7.07226,-3.03125 -11.11133,5.05078 c 0,0 -5.04263,-7.86648 -9.0918,-8.08203 -2.89226,-0.15397 -7.07031,5.05078 -7.07031,5.05078 l -2.02148,8.08203 2.02148,12.1211 -3.03125,0 -12.12109,-14.14258 c 0,0 -6.64475,0.11085 -9.0918,2.02148 -2.3736,1.85328 -4.04102,8.08008 -4.04102,8.08008 l 6.06055,9.0918 4.04102,7.07226 -1.00977,8.08008 -10.10156,5.05078 -130.3086,21.2129 -2.02148,-2.01954 -6.06055,0 -5.05078,0 -1.00976,25.25391 23.23242,-13.13281 38.38672,-7.07032 -1.00977,10.10157 c 0,0 -2.51104,8.05428 -2.02148,12.12109 0.61298,5.09205 6.06054,14.14258 6.06054,14.14258 0,0 6.66558,10.74342 12.12305,13.13281 6.16902,2.70092 20.20313,0 20.20313,0 l 59.59765,-6.0625 73.74219,4.04102 c 0,0 9.79138,-3.01429 12.12109,-7.07031 1.67709,-2.91982 0,-10.10157 0,-10.10157 l 22.22461,-7.07031 0,9.08984 44.44532,-5.05078 0,-13.13086 12.12304,-7.07226 27.27344,-4.03906 9.0918,7.07031 11.11132,-10.10157 7.07032,-15.15234 0,-10.10156 c 0,-10.10152 -10.10156,14.14258 -10.10156,14.14258 l 2.02148,-9.0918 -6.06055,-28.28516 15.15235,-3.02929 19.2539,0 17.11133,9.09179 c 0,0 2.59964,6.63893 5.05078,9.08985 2.45154,2.45132 5.63984,4.72987 9.0918,5.05078 3.18006,0.29563 7.08984,-3.0293 7.08984,-3.0293 l 0.99024,-12.12305 -1.00977,-25.25195 c 0,0 -0.76757,-10.21309 -2.01953,-15.15234 -1.85932,-7.33542 -8.08203,-21.21485 -8.08203,-21.21485 z m -81.82227,73.72071 13.13281,2.04101 3.0293,10.10157 3.03125,15.15234 -4.04101,7.07031 -10.10157,2.01953 z m -11.11133,3.05078 7.07227,35.35547 -8.08203,1.00976 -6.06055,-6.06054 -12.12305,0 -6.06054,-27.27539 z m -34.3457,3.0293 3.03125,26.26562 -28.28516,8.08008 -4.03906,-7.07031 -6.0625,0 -7.07031,-10.10157 c 0,0 -7.7206,2.38096 -10.10156,0 -1.66695,-1.66695 0,-7.07226 0,-7.07226 z m -146.47227,25.25507 3.03086,26.26446 c 0,0 -15.93288,5.85582 -23.23242,10.10156 -5.82106,3.38579 -16.16211,12.12109 -16.16211,12.12109 l 0,4.04102 -18.18359,0 c 0,0 -11.35056,-10.30365 -14.14258,-17.17383 -1.52644,-3.75603 -1.00976,-12.12109 -1.00976,-12.12109 0,0 4.46048,-8.50624 9.09179,-11.13281 4.40316,-2.49717 15.15235,-3.00977 15.15235,-3.00977 z"
       id="path3352"
       sodipodi:nodetypes="ccsccccccccccccccscccccscccccccccccccscscccsccccccccccsccccccsscccsccccccccccccccccccccccsccccscccscscc" />
    <path
       style="fill:#000000;fill-rule:evenodd;stroke:#000000;stroke-width:1px;stroke-linecap:butt;stroke-linejoin:miter;stroke-opacity:1"
       d="m 54.101613,539.5306 19.192898,44.44672 14.142136,26.26396 17.172603,25.25382 2.0203,4.04061 -4.04061,11.11167 -7.071075,11.11168 0,8.08122 4.04061,13.13199 261.629515,-1.01016 -9.09137,-47.47717 -6.06092,-21.2132 -9.09137,-30.30458 -6.06091,-34.34518 -15.15229,-46.46702 z"
       id="path3366"
       inkscape:connector-curvature="0" />
  </g>
</svg>
