<?xml version="1.0" encoding="UTF-8" standalone="no"?>
<!-- Created with Inkscape (http://www.inkscape.org/) -->

<svg
   xmlns:dc="http://purl.org/dc/elements/1.1/"
   xmlns:cc="http://creativecommons.org/ns#"
   xmlns:rdf="http://www.w3.org/1999/02/22-rdf-syntax-ns#"
   xmlns:svg="http://www.w3.org/2000/svg"
   xmlns="http://www.w3.org/2000/svg"
   xmlns:sodipodi="http://sodipodi.sourceforge.net/DTD/sodipodi-0.dtd"
   xmlns:inkscape="http://www.inkscape.org/namespaces/inkscape"
   width="679.04065"
   height="964.62494"
   id="svg2"
   version="1.1"
   inkscape:version="0.48.5 r10040"
   sodipodi:docname="lis.svg">
  <defs
     id="defs4" />
  <sodipodi:namedview
     id="base"
     pagecolor="#ffffff"
     bordercolor="#666666"
     borderopacity="1.0"
     inkscape:pageopacity="0.0"
     inkscape:pageshadow="2"
     inkscape:zoom="0.17230769"
     inkscape:cx="402.12587"
     inkscape:cy="649.66549"
     inkscape:document-units="px"
     inkscape:current-layer="layer1"
     showgrid="false"
     inkscape:window-width="724"
     inkscape:window-height="767"
     inkscape:window-x="136"
     inkscape:window-y="119"
     inkscape:window-maximized="0"
     showborder="false"
     inkscape:showpageshadow="false"
     fit-margin-top="0"
     fit-margin-left="0"
     fit-margin-right="0"
     fit-margin-bottom="0" />
  <metadata
     id="metadata7">
    <rdf:RDF>
      <cc:Work
         rdf:about="">
        <dc:format>image/svg+xml</dc:format>
        <dc:type
           rdf:resource="http://purl.org/dc/dcmitype/StillImage" />
        <dc:title></dc:title>
      </cc:Work>
    </rdf:RDF>
  </metadata>
  <g
     inkscape:label="Calque 1"
     inkscape:groupmode="layer"
     id="layer1"
     transform="translate(-41.865574,-18.474479)">
    <path
       style="fill:#800083;fill-opacity:1;stroke:#000000;stroke-width:1;stroke-miterlimit:4;stroke-dasharray:none"
       id="path2989"
       d="m 180.85994,66.529322 c -1.54955,-5.267818 -2.65485,-10.634916 -2.8761,-16.124059 0.0831,-5.222598 2.23435,-9.345187 6.27661,-12.516954 8.85097,-5.126289 17.70194,-10.252578 26.5529,-15.378866 0.6335,-0.333756 2.52009,-1.360153 1.90049,-1.001266 -7.58984,4.396181 -30.45149,17.424303 -22.81258,13.113944 12.37624,-6.983459 19.11426,-16.187576 31.58254,-15.617653 6.26393,2.254487 9.74497,7.993265 13.10529,13.359145 3.04033,5.992534 6.10572,11.959539 8.56411,18.219112 1.97148,5.247745 2.60411,10.836708 2.87065,16.39735 0.19515,4.953566 0.12008,9.911049 0.11213,14.866816 0.14508,5.081346 0.11656,10.02246 -1.48188,14.880629 -1.72579,5.29465 -5.1446,9.33614 -9.02595,13.17996 -11.65657,9.81681 -24.97437,18.77533 -39.76084,22.85325 -4.84368,1.04668 -9.84216,1.07128 -14.77751,1.07826 -5.92639,-0.091 -11.86474,0.15067 -17.76642,-0.43425 -7.38711,-0.44873 -14.28455,-3.06765 -20.73145,-6.54913 -6.53288,-3.47382 -11.27361,-8.99325 -15.53997,-14.87744 -3.51197,-4.94545 -6.43857,-10.19492 -8.78044,-15.78098 -2.00034,-6.290772 -5.04101,-12.177202 -7.7719,-18.170944 -0.89206,-1.570691 -3.00458,-7.32197 -5.28766,-7.48606 -0.78223,-0.05622 -1.45449,1.573209 -1.64481,1.910286 37.68708,-22.024445 24.24259,-20.212085 21.97429,-8.710306 -0.73257,3.714639 -0.83221,7.540996 -1.01492,11.308556 -0.30705,8.941343 -0.22687,17.889752 -0.18049,26.834628 0.0836,7.76164 0.0549,15.52359 0.093,23.2854 0.0319,7.52045 -0.0399,15.04034 0.0196,22.56063 0.0282,5.76988 0.11087,11.54005 0.0975,17.31007 0.002,1.23631 0.0633,3.93548 -0.15972,5.15966 -0.20014,1.09865 -0.94269,3.54591 -2.07589,4.23331 -25.580802,15.51745 -16.55522,15.07156 -29.048703,15.14152 -6.200724,-0.84748 -12.1927,-2.65724 -18.356045,-3.72271 -5.400183,-0.87397 -10.86985,-1.05935 -16.32868,-1.14006 -3.161226,0.35731 -6.691769,-0.73302 -9.776719,0.32745 -0.694772,0.23883 -2.544642,1.46968 -1.902387,1.11295 7.76781,-4.31451 15.519663,-8.65769 23.279494,-12.98653 -0.412477,0.60178 -0.956698,1.13194 -1.237429,1.80534 -2.317605,5.5593 -0.889617,17.50634 -0.429787,23.46623 1.38451,14.80115 1.816989,29.66972 2.336552,44.5203 0.330782,10.37064 0.514614,20.74428 0.694029,31.11831 0,0 -25.453441,12.97288 -25.453441,12.97288 l 0,0 c 0.154476,-10.47383 0.220639,-20.95077 0.0635,-31.42493 -0.271715,-14.7687 -0.832541,-29.53949 -2.541439,-44.22294 -0.879731,-8.94003 -2.23726,-18.33366 -0.172491,-27.17406 22.485335,-13.63071 20.278909,-17.18837 38.50939,-16.40615 5.517085,0.18966 11.034183,0.5285 16.462899,1.60123 5.945177,1.16342 11.883487,3.1548 17.994947,2.85404 10.63966,-3.0954 2.27698,-0.84985 -20.88765,13.08749 -0.562941,0.3387 1.215795,-0.53018 1.739165,-0.92731 2.115343,-1.60507 1.591589,-3.95386 1.617943,-6.3153 -0.01326,-5.80322 0.07018,-11.60659 0.09815,-17.40968 0.05881,-7.52449 -0.0117,-15.04855 0.0101,-22.57321 0.02549,-7.77872 -0.02622,-15.55746 0.01479,-23.33622 0.0087,-8.97554 -0.0096,-17.951077 0.110136,-26.92586 0.131053,-4.85277 0.100207,-9.818009 0.968386,-14.614264 0.14815,-0.818409 -0.0801,-1.934842 0.59273,-2.423702 8.22301,-5.974256 17.05486,-11.062129 25.58229,-16.593193 5.3898,0.06799 7.20466,5.529896 9.23621,9.698109 2.62958,6.057982 5.75571,11.91966 7.8538,18.18916 2.28004,5.37363 4.97681,10.471334 8.38587,15.233303 4.0859,5.503767 8.35363,10.782757 14.69529,13.837687 6.36728,3.07464 13.03592,5.28477 20.16975,5.54082 5.93029,0.25148 11.86561,0.14856 17.8,0.10891 4.7925,-0.12836 9.64958,-0.24136 14.25228,-1.74333 9.56028,-3.47506 21.14124,-11.59323 -17.14132,10.83513 -2.61869,1.53419 2.86653,-1.47101 5.14402,-3.12502 0.84816,-0.61597 1.63469,-1.3126 2.45203,-1.9689 3.73894,-3.57192 7.58058,-6.97042 9.36267,-11.99521 2.10503,-4.48434 2.16044,-9.023761 1.95083,-13.919847 0.0349,-4.918556 0.061,-9.838392 -0.0228,-14.756456 -0.20948,-5.286147 -0.54562,-10.614389 -2.31356,-15.652366 -2.26151,-6.143807 -5.38866,-11.876293 -8.25162,-17.753621 -2.74913,-4.404295 -5.86487,-10.115579 -11.60801,-10.641425 -0.70105,0.136363 -1.42219,0.193785 -2.10316,0.40909 -0.7056,0.223093 -2.66714,1.275009 -2.03043,0.897848 7.549,-4.471757 30.42874,-17.487102 22.77959,-13.188896 -8.95222,5.030429 -17.78451,10.271432 -26.68909,15.385719 -0.62359,0.358153 -2.51484,1.395728 -1.8949,1.031298 7.61799,-4.478209 15.25998,-8.915455 22.88996,-13.373182 -4.21327,2.581465 -6.96396,4.713394 -7.57112,10.016438 -0.0937,5.115123 0.9407,10.214039 2.67514,15.023805 0,0 -25.42182,14.196217 -25.42182,14.196217 z"
       inkscape:connector-curvature="0" />
    <path
       style="fill:#800083;fill-opacity:1;stroke:#000000;stroke-width:1;stroke-miterlimit:4;stroke-dasharray:none"
       id="path2991"
       d="m 87.437249,727.68719 c -0.379797,8.12353 -0.194096,16.25681 -0.544562,24.38075 -0.854748,11.01553 -1.325248,22.05125 -1.599582,33.0946 -0.191682,9.18278 -0.100994,18.36725 -0.07628,27.55094 0.05181,7.9475 -0.0065,15.89571 -0.04992,23.84325 0.198109,8.92991 -0.120348,17.82373 -0.793431,26.7254 -0.542335,6.55344 -0.573744,13.12182 -1.400381,19.64814 -0.766435,4.88958 -1.17158,9.81365 -1.369834,14.75526 -0.176414,4.89836 -0.167593,9.80202 -0.170884,14.70305 -0.05232,4.83432 0.330646,9.68981 -0.542903,14.4664 -3.517024,11.30285 -0.681469,4.7733 -27.405495,14.17902 -1.153322,0.40592 1.160534,-7.95424 1.236762,-8.26868 1.782701,-6.99824 5.17053,-13.43884 8.698753,-19.69137 3.96988,-6.30165 7.739749,-12.71437 12.134459,-18.73287 4.482171,-6.10468 9.739734,-11.4983 15.553091,-16.32554 6.898051,-5.64287 14.439788,-10.43829 21.812238,-15.42823 15.53975,-10.52992 32.02761,-19.60522 49.01611,-27.55828 9.4989,-4.75001 19.99176,-6.58489 30.13457,-9.37886 8.00482,-2.00657 16.05489,-4.46755 24.36589,-4.58939 1.70089,0.78782 2.47958,0.72161 3.18762,2.60015 0.98112,2.60307 -0.95802,4.33915 -3.0312,5.54377 -8.96965,5.21181 -18.03774,10.25232 -27.05661,15.37847 -5.89143,2.75318 -12.31228,4.3093 -18.69662,5.45985 -1.00484,0.25109 -2.03369,0.42052 -3.01452,0.75328 -3.06784,1.04079 -7.99249,4.10915 -5.70826,2.79946 39.58705,-22.69776 25.268,-14.51108 16.71829,-9.34639 -9.05743,5.1841 -18.06175,10.46211 -27.17228,15.55231 -0.80612,0.45039 -1.72549,0.66332 -2.55965,1.05937 -0.87032,0.41321 -3.38152,1.84762 -2.54745,1.3654 7.32904,-4.23722 29.33571,-16.91441 22.03351,-12.6311 -0.91196,0.53493 -63.65082,36.63662 -4.89615,2.82551 -11.03126,2.88131 -19.16188,11.97447 -29.37722,16.73381 -3.15166,1.46836 -1.84825,0.61738 -4.88841,2.23568 -0.77341,0.41169 -3.03665,1.74965 -2.27637,1.31419 7.47201,-4.27972 14.94103,-8.56464 22.41154,-12.84695 -4.678,3.01566 -9.22634,6.16808 -13.5712,9.64607 -4.2697,3.26659 -8.50469,6.57426 -12.06435,10.61883 -1.86676,2.85952 -6.49148,7.05419 -4.91119,10.8632 0.35916,0.19427 0.67267,0.52924 1.07747,0.5828 1.51354,0.20026 5.606,-0.66343 7.17911,-0.80776 2.7838,-0.2554 5.49206,-0.4095 8.28567,-0.59025 11.51751,-1.45149 23.0089,-3.12809 34.53642,-4.52867 11.75968,-1.35293 23.58963,-1.89309 35.41523,-2.23749 10.23804,-0.19119 20.4788,-0.10451 30.71779,-0.0487 12.78059,0.12406 25.56129,0.0678 38.342,0.0252 7.76801,-0.0709 15.53597,-0.13436 23.3041,-0.19045 12.91406,-0.15934 12.55791,-4.32128 -20.97139,16.99932 -0.5337,0.33938 -1.26469,-0.0249 -1.89708,-0.0349 -0.8003,-0.0127 -1.60065,-0.022 -2.40097,-0.033 -6.20346,-0.22241 -12.32842,-0.0487 -18.3514,1.52102 -8.07966,3.16178 -16.41113,5.5925 -24.59387,8.45201 -9.57018,3.48602 -19.36317,6.38374 -29.28176,8.69154 -8.99251,3.0916 -18.16757,5.53168 -27.30284,8.14157 -9.28056,2.37253 -18.39119,5.36237 -27.65838,7.81853 -6.02779,2.07463 -12.91363,2.46646 -18.7016,5.00794 -5.76044,2.24504 -11.45529,4.64661 -17.17542,6.99487 -4.84978,1.98224 -9.779833,3.3435 -14.250473,6.1369 -0.704564,0.38828 -1.409128,0.77656 -2.113692,1.16483 7.453165,-4.27175 14.854655,-8.63496 22.359495,-12.81527 0.94252,-0.52499 -1.79209,1.203 -2.66077,1.8428 -2.78467,2.05095 -5.38156,4.35862 -8.03382,6.57404 -5.403822,4.68022 -11.540508,8.51604 -16.393651,13.79952 0.435284,0.51444 -1.684128,1.68023 -1.29171,2.54778 0.08122,0.17957 0.357725,-0.19224 0.554356,-0.2056 1.588018,-0.10788 3.180214,0.199 4.771744,0.17725 1.331606,-0.0182 2.659311,-0.14863 3.988967,-0.22294 13.146824,-0.95103 26.320534,-1.32485 39.496414,-1.54882 19.12441,-0.22015 38.25074,-0.17569 57.37609,-0.17493 25.02119,0.0883 50.04238,0.17933 75.06351,0.28641 34.91927,0.16857 69.83881,0.2598 104.75844,0.30739 43.42929,0.10857 86.85845,0.25138 130.2879,0.27468 46.06012,-0.001 92.11983,0.10726 138.17951,-0.13604 25.85822,-0.40755 51.76717,0.21638 77.58321,-1.5635 0,0 -22.48381,16.50099 -22.48381,16.50099 l 0,0 c -25.01034,0.65446 -50.02779,-0.71741 -75.0434,-0.44732 -45.93491,-0.2462 -91.86987,-0.13248 -137.80523,-0.1359 -43.68127,0.0235 -87.36227,0.16679 -131.04339,0.27417 -35.19656,0.0467 -70.39303,0.13751 -105.58927,0.29579 -25.27616,0.099 -50.55238,0.17016 -75.82851,0.27294 -19.24658,0.0357 -38.49536,0.0703 -57.73781,0.51271 -13.4108,0.38499 -26.810402,0.9813 -40.182887,2.09684 -5.202939,0.094 -15.413547,0.51592 -11.500244,-7.84179 4.332917,-5.92988 10.806079,-9.62683 16.305424,-14.37877 3.325523,-2.69484 6.77645,-6.47799 10.399449,-8.66255 8.906437,-5.37032 17.946648,-10.51562 26.932038,-15.75277 0.68911,-0.40165 1.39401,-0.77557 2.09102,-1.16336 4.65913,-2.32455 9.68303,-3.69316 14.42289,-5.84469 5.68005,-2.38712 11.43588,-4.58257 17.17494,-6.82288 6.1518,-1.7973 12.49243,-2.93792 18.6688,-4.67173 9.19743,-2.46906 18.27446,-5.35134 27.49084,-7.7457 9.15945,-2.57746 18.24474,-5.37444 27.37181,-8.05915 9.85769,-2.49734 19.61996,-5.36754 29.15511,-8.91883 8.32883,-2.78253 16.59573,-5.76549 24.98293,-8.34671 6.26925,-1.14249 12.58551,-1.32732 18.95063,-1.19187 0.83062,-0.011 1.66126,-0.0204 2.49185,-0.033 0.66444,-0.01 2.5002,-0.46443 1.99322,-0.0348 -21.43295,18.16162 -13.35693,17.35653 -25.82441,16.99957 -7.59046,-0.0563 -15.18072,-0.12128 -22.77101,-0.19813 -12.78024,-0.0531 -25.56045,-0.12408 -38.34081,-0.0275 -10.27961,0.0391 -20.56007,0.0422 -30.83837,0.2292 -11.68142,0.26115 -23.36761,0.77685 -34.96809,2.25611 -11.66056,1.52542 -23.29057,3.29004 -34.96575,4.67583 -4.21398,0.37344 -13.429534,2.26779 -17.1772,-0.0534 -0.715088,-0.4429 -1.212533,-1.16611 -1.818799,-1.74916 -0.323576,-0.71192 -0.795818,-1.37356 -0.970726,-2.13574 -0.985522,-4.29453 2.500158,-8.40461 4.693461,-11.64625 3.224714,-4.49052 7.429784,-7.96737 11.841594,-11.26847 4.44766,-3.3654 8.67145,-6.93979 13.41147,-9.90443 8.96227,-5.21244 17.90113,-10.46534 26.88682,-15.63731 2.30251,-1.32527 4.81182,-2.28474 7.17126,-3.50193 0.81665,-0.42129 3.21858,-1.77438 2.42523,-1.3107 -7.43087,4.34295 -14.89264,8.63282 -22.33896,12.94923 9.00244,-5.21576 18.02146,-10.403 27.00731,-15.64727 7.3441,-4.28611 -29.5049,16.92095 -22.08201,12.77279 9.1346,-5.10471 18.11312,-10.48443 27.21758,-15.64271 0.85892,-0.48663 1.77908,-0.8562 2.66653,-1.28861 0.80292,-0.39123 3.17309,-1.63736 2.40454,-1.18232 -7.30486,4.32504 -14.67978,8.53065 -22.01966,12.79598 13.49848,-7.96903 26.14037,-18.54731 41.65468,-21.82794 6.32393,-1.34031 12.5942,-3.14806 18.34826,-6.15553 -7.44949,4.35074 -14.92259,8.6613 -22.34847,13.05222 -1.16689,0.68998 2.36501,-1.52497 3.71424,-1.6565 0.36835,-0.0359 1.43598,0.35755 1.07304,0.28514 -0.42551,-0.0849 -0.85792,-0.13049 -1.28687,-0.19573 -7.99923,0.5179 -15.76265,2.75365 -23.49367,4.73428 -10.15605,2.65868 -20.48222,4.95602 -29.87857,9.83161 -4.63459,2.24549 -4.30528,2.06316 -8.80676,4.33129 -1.32519,0.66772 -5.23841,2.78487 -3.96829,2.01755 38.41162,-23.20566 20.57464,-12.16222 12.26715,-6.76332 -7.31048,4.98193 -14.81734,9.72023 -21.79628,15.15589 -0.50884,0.40648 -5.66078,4.50322 -6.22284,5.02434 -3.47539,3.2223 -6.38704,7.05635 -9.49084,10.61765 -4.546706,5.8806 -8.274602,12.25412 -12.352901,18.45816 -3.549345,5.95318 -6.780016,12.21663 -8.865816,18.84245 -0.07196,0.31445 -1.376485,6.29615 -1.604621,6.41846 -8.580119,4.60024 -17.475499,8.5943 -26.068082,13.17121 -0.28579,0.15223 0.644843,0.32075 0.948698,0.20885 0.382948,-0.14103 0.57156,-0.58265 0.857341,-0.87397 1.88902,-4.31166 0.720213,-9.19078 1.016308,-13.77452 -0.004,-4.92996 -0.01355,-9.85985 0.08877,-14.78921 0.19538,-5.03694 0.464203,-10.08133 1.335381,-15.05513 0.983505,-6.50979 1.225644,-13.06718 1.730827,-19.62903 0.760228,-8.84379 1.325173,-17.67216 0.973341,-26.55807 -0.05001,-7.92933 -0.122745,-15.85943 -0.06741,-23.78875 0.04784,-9.26188 0.20094,-18.52301 0.390778,-27.78299 0.255667,-11.03485 0.697643,-22.06139 1.41049,-33.07697 0.432413,-7.96104 0.226981,-15.94541 -0.07566,-23.91021 0,0 25.91469,-13.2042 25.91469,-13.2042 z"
       inkscape:connector-curvature="0" />
  </g>
</svg>
