<?xml version="1.0" encoding="UTF-8" standalone="no"?>
<!-- Created with Inkscape (http://www.inkscape.org/) -->

<svg
   xmlns:dc="http://purl.org/dc/elements/1.1/"
   xmlns:cc="http://creativecommons.org/ns#"
   xmlns:rdf="http://www.w3.org/1999/02/22-rdf-syntax-ns#"
   xmlns:svg="http://www.w3.org/2000/svg"
   xmlns="http://www.w3.org/2000/svg"
   xmlns:sodipodi="http://sodipodi.sourceforge.net/DTD/sodipodi-0.dtd"
   xmlns:inkscape="http://www.inkscape.org/namespaces/inkscape"
   width="145.74561"
   height="102.41499"
   id="svg2"
   version="1.1"
   inkscape:version="0.48.5 r10040"
   sodipodi:docname="lis.svg">
  <defs
     id="defs4" />
  <sodipodi:namedview
     id="base"
     pagecolor="#ffffff"
     bordercolor="#666666"
     borderopacity="1.0"
     inkscape:pageopacity="0.0"
     inkscape:pageshadow="2"
     inkscape:zoom="5.4589804"
     inkscape:cx="-60.408433"
     inkscape:cy="56.354711"
     inkscape:document-units="px"
     inkscape:current-layer="layer1"
     showgrid="false"
     inkscape:window-width="1516"
     inkscape:window-height="889"
     inkscape:window-x="77"
     inkscape:window-y="97"
     inkscape:window-maximized="0"
     showborder="false"
     inkscape:showpageshadow="false"
     fit-margin-top="0"
     fit-margin-left="0"
     fit-margin-right="0"
     fit-margin-bottom="0" />
  <metadata
     id="metadata7">
    <rdf:RDF>
      <cc:Work
         rdf:about="">
        <dc:format>image/svg+xml</dc:format>
        <dc:type
           rdf:resource="http://purl.org/dc/dcmitype/StillImage" />
        <dc:title />
      </cc:Work>
    </rdf:RDF>
  </metadata>
  <g
     inkscape:label="Calque 1"
     inkscape:groupmode="layer"
     id="layer1"
     transform="translate(727.22826,414.60604)">
    <path
       style="fill:#ffaaaa;fill-opacity:1;stroke:#666666;stroke-width:0.08871455;stroke-miterlimit:4;stroke-dasharray:none"
       d="m -724.49141,-325.17013 c -5.40437,12.75101 16.05141,14.9775 14.60162,2.22542 2.7451,-6.84582 -13.29513,-5.83728 -6.88975,-7.22021 -1.83878,2.43772 -1.06053,13.40419 -4.10549,6.49695 -0.18421,-4.96394 2.08564,-12.33173 -5.50862,-10.43181 1.35111,-14.05235 3.36493,-25.93196 3.38828,-37.54466 0.0233,-11.6127 1.30587,-21.23227 -0.91042,-31.34459 2.58559,-2.38766 9.17432,1.08427 5.76867,1.00501 0.64749,-3.50264 0.69384,-8.72773 5.50621,-4.93627 75.86312,0.23107 151.73171,-0.29928 227.59158,0.15064 -5.89453,0.21024 -16.13185,0.0126 -23.73236,0.067 -68.22223,-0.22547 -136.43403,1.27652 -204.65519,1.44126 -3.9415,0.13179 -5.55355,-3.24166 -1.62005,-2.46017 5.13464,8.08417 -13.84444,6.78532 -5.95993,4.002 1.73115,9.0082 0.89099,21.22982 0.65105,32.74584 -0.23994,11.51602 -1.90871,22.2514 -3.42861,35.70366 8.48328,-2.87289 5.97328,10.84911 4.71566,13.72913 -5.80312,-2.12113 2.28048,-14.10314 8.62438,-7.95204 9.26175,6.34325 -2.54424,20.37477 -11.65131,16.59393 -5.40105,0.3168 -7.87763,-11.73218 -2.38572,-12.27106 z"
       id="path2988"
       inkscape:connector-curvature="0"
       sodipodi:nodetypes="ccccczcccccccczcccccc" />
  </g>
</svg>
