<?xml version="1.0" encoding="UTF-8" standalone="no"?>
<svg
   xmlns:dc="http://purl.org/dc/elements/1.1/"
   xmlns:cc="http://creativecommons.org/ns#"
   xmlns:rdf="http://www.w3.org/1999/02/22-rdf-syntax-ns#"
   xmlns:svg="http://www.w3.org/2000/svg"
   xmlns="http://www.w3.org/2000/svg"
   xmlns:sodipodi="http://sodipodi.sourceforge.net/DTD/sodipodi-0.dtd"
   xmlns:inkscape="http://www.inkscape.org/namespaces/inkscape"
   version="1.1"
   y="0px"
   x="0px"
   viewBox="0 0 947 765"
   id="svg2"
   inkscape:version="0.48.5 r10040"
   width="100%"
   height="100%"
   sodipodi:docname="shoppingcart.svg">
  <defs
     id="defs21" />
  <sodipodi:namedview
     pagecolor="#462218"
     bordercolor="#666666"
     borderopacity="1"
     objecttolerance="10"
     gridtolerance="10"
     guidetolerance="10"
     inkscape:pageopacity="0.97647059"
     inkscape:pageshadow="2"
     inkscape:window-width="1920"
     inkscape:window-height="1014"
     id="namedview19"
     showgrid="false"
     inkscape:zoom="0.61004536"
     inkscape:cx="764.35007"
     inkscape:cy="379.1273"
     inkscape:window-x="0"
     inkscape:window-y="44"
     inkscape:window-maximized="1"
     inkscape:current-layer="svg2"
     inkscape:snap-global="true"
     inkscape:snap-nodes="true"
     inkscape:snap-grids="false"
     inkscape:snap-to-guides="true"
     inkscape:snap-page="false"
     showguides="true"
     inkscape:guide-bbox="true" />
  <g
     transform="matrix(1.5062492,0,0,1.2737607,-257.24157,-154.42784)"
     id="g3014">
    <path
       sodipodi:nodetypes="ccccc"
       d="m 307,539 0,25 394,0 0,-25 z"
       id="path7"
       inkscape:connector-curvature="0"
       style="fill:#e0e0e0" />
    <path
       sodipodi:nodetypes="ssssssssss"
       d="m 307,651 c -30.93,0 -56,-25.07 -56,-56 0,-30.93 25.07,-56 56,-56 30.93,0 56,25.07 56,56 0,30.93 -25.07,56 -56,56 z m -1,-28 c 16.02,0 29,-12.98 29,-29 0,-16.02 -12.98,-29 -29,-29 -16.02,0 -29,12.98 -29,29 0,16.02 12.98,29 29,29 z"
       id="path9"
       inkscape:connector-curvature="0"
       style="fill:#e0e0e0" />
    <path
       sodipodi:nodetypes="ssssssssss"
       d="m 697,651 c -30.93,0 -56,-25.07 -56,-56 0,-30.93 25.07,-56 56,-56 30.93,0 56,25.07 56,56 0,30.93 -25.07,56 -56,56 z m -1,-28 c 16.02,0 29,-12.98 29,-29 0,-16.02 -12.98,-29 -29,-29 -16.02,0 -29,12.98 -29,29 0,16.02 12.98,29 29,29 z"
       id="path11"
       inkscape:connector-curvature="0"
       style="fill:#e0e0e0" />
    <path
       sodipodi:nodetypes="ssscsccscccccccccccccccccccccccccccccc"
       d="m 726.01924,304.61534 c 19.07083,3.43527 15.70239,28.51194 15.81127,34.36093 L 744,455.52 c 0.40742,21.88621 -10.95471,39.01 -10.95471,39.01 0,0 -10.17529,15.47 -31.31529,15.47 L 334,510 334,234 z m -365.04304,-31.15848 0.34127,207.36802 41.07661,0.054 -0.0895,-200.7486 z m 64.18499,11.24111 0.01,195.72335 41.49059,0.19587 -0.42078,-189.52894 z m 64.54121,10.39108 -0.2692,185.33227 41.69309,0.99996 -0.48638,-179.72835 z m 64.25491,10.67125 -0.42047,175.20339 41.58945,-0.32757 -0.37704,-167.78058 z m 63.92017,11.88061 -0.29859,163.18397 41.48868,0.35362 10e-6,-157.73722 z m 63.80505,9.92733 1.0238,153.66019 40.90097,0.69735 -0.39891,-147.18935 z"
       id="path13"
       inkscape:connector-curvature="0"
       style="fill:#ffffff" />
    <path
       sodipodi:nodetypes="ccccccc"
       d="M 229.49153,196.47458 301,234 l 0,316 33,0 0,-338.44 -79.55932,-45.72949 z"
       id="path15"
       inkscape:connector-curvature="0"
       style="fill:#e0e0e0" />
  </g>
  <metadata
     id="metadata17">
    <rdf:RDF>
      <cc:Work>
        <dc:format>image/svg+xml</dc:format>
        <dc:type
           rdf:resource="http://purl.org/dc/dcmitype/StillImage" />
        <cc:license
           rdf:resource="http://creativecommons.org/licenses/publicdomain/" />
        <dc:publisher>
          <cc:Agent
             rdf:about="http://openclipart.org/">
            <dc:title>Openclipart</dc:title>
          </cc:Agent>
        </dc:publisher>
        <dc:title />
        <dc:date>2013-07-02T06:51:00</dc:date>
        <dc:description>A shopping cart graphic</dc:description>
        <dc:source>https://openclipart.org/detail/179939/shopping-cart-by-petersirka-179939</dc:source>
        <dc:creator>
          <cc:Agent>
            <dc:title>petersirka</dc:title>
          </cc:Agent>
        </dc:creator>
        <dc:subject>
          <rdf:Bag>
            <rdf:li>basket</rdf:li>
            <rdf:li>cart</rdf:li>
            <rdf:li>eshop</rdf:li>
            <rdf:li>shopping</rdf:li>
          </rdf:Bag>
        </dc:subject>
      </cc:Work>
      <cc:License
         rdf:about="http://creativecommons.org/licenses/publicdomain/">
        <cc:permits
           rdf:resource="http://creativecommons.org/ns#Reproduction" />
        <cc:permits
           rdf:resource="http://creativecommons.org/ns#Distribution" />
        <cc:permits
           rdf:resource="http://creativecommons.org/ns#DerivativeWorks" />
      </cc:License>
    </rdf:RDF>
  </metadata>
</svg>
