<?xml version="1.0" encoding="UTF-8" standalone="no"?>
<!-- Created with Inkscape (http://www.inkscape.org/) -->

<svg
   xmlns:dc="http://purl.org/dc/elements/1.1/"
   xmlns:cc="http://creativecommons.org/ns#"
   xmlns:rdf="http://www.w3.org/1999/02/22-rdf-syntax-ns#"
   xmlns:svg="http://www.w3.org/2000/svg"
   xmlns="http://www.w3.org/2000/svg"
   xmlns:xlink="http://www.w3.org/1999/xlink"
   xmlns:sodipodi="http://sodipodi.sourceforge.net/DTD/sodipodi-0.dtd"
   xmlns:inkscape="http://www.inkscape.org/namespaces/inkscape"
   width="212.08635mm"
   height="268.45084mm"
   viewBox="0 0 751.48706 951.20376"
   id="svg2"
   version="1.1"
   inkscape:version="0.48.5 r10040"
   sodipodi:docname="celular-soft.svg"
   inkscape:export-filename="C:\Users\Gustavo Ferreira\Dropbox\Artes graficas\GM2R Studios\MOCKUP\MOCKUP-DISPOSITIVOS.png"
   inkscape:export-xdpi="350.04999"
   inkscape:export-ydpi="350.04999">
  <defs
     id="defs4">
    <linearGradient
       inkscape:collect="always"
       id="linearGradient4705">
      <stop
         style="stop-color:#b3b3b3;stop-opacity:1"
         offset="0"
         id="stop4707" />
      <stop
         style="stop-color:#f9f9f9;stop-opacity:1"
         offset="1"
         id="stop4709" />
    </linearGradient>
    <linearGradient
       inkscape:collect="always"
       id="linearGradient4434">
      <stop
         style="stop-color:#999;stop-opacity:1"
         offset="0"
         id="stop4436" />
      <stop
         style="stop-color:#4d4d4d;stop-opacity:1"
         offset="1"
         id="stop4438" />
    </linearGradient>
    <linearGradient
       inkscape:collect="always"
       id="linearGradient4185">
      <stop
         style="stop-color:#999;stop-opacity:1"
         offset="0"
         id="stop4187" />
      <stop
         style="stop-color:#4d4d4d;stop-opacity:1"
         offset="1"
         id="stop4189" />
    </linearGradient>
    <linearGradient
       inkscape:collect="always"
       xlink:href="#linearGradient4185"
       id="linearGradient4193"
       x1="389.89578"
       y1="99.513603"
       x2="387.80273"
       y2="650.89453"
       gradientUnits="userSpaceOnUse" />
    <linearGradient
       inkscape:collect="always"
       xlink:href="#linearGradient4185"
       id="linearGradient4275"
       gradientUnits="userSpaceOnUse"
       x1="389.89578"
       y1="99.513603"
       x2="387.80273"
       y2="650.89453"
       gradientTransform="matrix(1.5357143,0,0,1.5357143,-545.86472,-337.10183)" />
    <linearGradient
       inkscape:collect="always"
       xlink:href="#linearGradient4434"
       id="linearGradient4442"
       x1="2016.7129"
       y1="635.93359"
       x2="2041.772"
       y2="-647.61511"
       gradientUnits="userSpaceOnUse" />
    <linearGradient
       inkscape:collect="always"
       xlink:href="#linearGradient4434"
       id="linearGradient4527"
       gradientUnits="userSpaceOnUse"
       x1="2016.7129"
       y1="635.93359"
       x2="2041.772"
       y2="-647.61511"
       gradientTransform="matrix(0.36980838,0,0,0.32764784,486.08153,70.294668)" />
    <linearGradient
       inkscape:collect="always"
       xlink:href="#linearGradient4705"
       id="linearGradient4691"
       x1="131.95717"
       y1="627.45856"
       x2="481.26199"
       y2="44.515514"
       gradientUnits="userSpaceOnUse" />
    <linearGradient
       inkscape:collect="always"
       xlink:href="#linearGradient4705"
       id="linearGradient4693"
       x1="138.72906"
       y1="-69.321526"
       x2="-388.43829"
       y2="746.21747"
       gradientUnits="userSpaceOnUse" />
    <linearGradient
       inkscape:collect="always"
       xlink:href="#linearGradient4705"
       id="linearGradient4695"
       x1="689.42188"
       y1="202.53661"
       x2="1343.151"
       y2="-118.61337"
       gradientUnits="userSpaceOnUse" />
    <linearGradient
       inkscape:collect="always"
       xlink:href="#linearGradient4705"
       id="linearGradient4697"
       x1="643.63629"
       y1="371.81641"
       x2="2414.3157"
       y2="-782.38965"
       gradientUnits="userSpaceOnUse" />
  </defs>
  <sodipodi:namedview
     id="base"
     pagecolor="#ffffff"
     bordercolor="#666666"
     borderopacity="1.0"
     inkscape:pageopacity="0.0"
     inkscape:pageshadow="2"
     inkscape:zoom="0.8435621"
     inkscape:cx="125.9216"
     inkscape:cy="650.85834"
     inkscape:document-units="px"
     inkscape:current-layer="layer1"
     showgrid="false"
     inkscape:snap-bbox="true"
     inkscape:bbox-paths="true"
     inkscape:bbox-nodes="true"
     inkscape:snap-bbox-edge-midpoints="true"
     inkscape:snap-bbox-midpoints="true"
     inkscape:object-paths="true"
     inkscape:snap-intersection-paths="true"
     inkscape:object-nodes="true"
     inkscape:snap-smooth-nodes="true"
     inkscape:snap-midpoints="true"
     inkscape:snap-object-midpoints="true"
     inkscape:snap-center="true"
     inkscape:snap-text-baseline="true"
     inkscape:snap-page="true"
     inkscape:snap-global="false"
     showguides="true"
     inkscape:guide-bbox="true"
     fit-margin-left="3"
     fit-margin-top="3"
     fit-margin-right="3"
     fit-margin-bottom="3"
     inkscape:window-width="1580"
     inkscape:window-height="868"
     inkscape:window-x="0"
     inkscape:window-y="27"
     inkscape:window-maximized="0" />
  <metadata
     id="metadata7">
    <rdf:RDF>
      <cc:Work
         rdf:about="">
        <dc:format>image/svg+xml</dc:format>
        <dc:type
           rdf:resource="http://purl.org/dc/dcmitype/StillImage" />
        <dc:title></dc:title>
      </cc:Work>
    </rdf:RDF>
  </metadata>
  <g
     inkscape:label="Camada 1"
     inkscape:groupmode="layer"
     id="layer1"
     transform="translate(38.744481,-104.18577)">
    <g
       id="g5363"
       transform="matrix(0.61140676,0,0,0.61140676,251.58495,-396.14264)">
      <g
         id="g5311">
        <path
           style="fill:#000000;fill-opacity:1;stroke:#ffffff;stroke-width:2;stroke-linecap:butt;stroke-linejoin:miter;stroke-miterlimit:4;stroke-opacity:1;stroke-dasharray:none;stroke-dashoffset:0"
           d="m -194.12129,842.97629 c -7.027,0 -12.68359,5.1509 -12.68359,11.54883 l 0,462.87698 c 0,6.3979 5.65659,11.5488 12.68359,11.5488 l 837.74414,0 c 7.02698,0 12.68555,-5.1509 12.68555,-11.5488 l 0,-462.87698 c 0,-6.39793 -5.65857,-11.54883 -12.68555,-11.54883 l -837.74414,0 z m 418.87305,8.42578 a 8.2939779,8.2939779 0 0 1 8.29297,8.29297 8.2939779,8.2939779 0 0 1 -8.29297,8.29493 8.2939779,8.2939779 0 0 1 -8.29492,-8.29493 8.2939779,8.2939779 0 0 1 8.29492,-8.29297 z m -393.7793,21.76954 787.55664,0 c 4.31712,0 7.79297,3.27485 7.79297,7.34179 l 0,410.9004 c 0,4.0669 -3.47585,7.3398 -7.79297,7.3398 l -787.55664,0 c -4.31717,0 -7.79296,-3.2729 -7.79297,-7.3398 l 0,-410.9004 c 0,-4.06694 3.4758,-7.34179 7.79297,-7.34179 z m 328.01368,456.13479 c -0.93118,0 -1.67969,0.905 -1.67969,2.0293 l 0,135.9043 -152.3906315,0 c -1.18305,0 -3.09899,1.4271 -4.00780995,3.2812 -0.73727,1.5041 -1.02882,3.0043 -0.95508,4.9922 -0.00523,-0.018 -0.01236,-0.039 -0.01758,-0.057 0.00403,0.037 0.01336,0.089 0.01758,0.1269 0.09479,2.2845 0.67245,5.2242 1.69531995,9.6602 0.25682,1.1137 0.48916,2.394 0.76562,3.666 0.06448,0.297 0.13401,0.5893 0.20508,0.8828 0.05223,0.2155 0.10532,0.4272 0.16211,0.6387 0.09849,0.3674 0.20858,0.7206 0.32422,1.0683 0.04889,0.1468 0.09007,0.3013 0.14257,0.4434 0.01535,0.042 0.03316,0.08 0.04883,0.1211 0.12473,0.327 0.26044,0.6376 0.40821,0.9316 0.03016,0.06 0.05861,0.1232 0.08984,0.1817 0.04156,0.078 0.08539,0.1518 0.12891,0.2265 0.07729,0.133 0.15833,0.2601 0.24218,0.3829 0.03584,0.052 0.07033,0.1058 0.10743,0.1562 0.10719,0.1458 0.22154,0.2824 0.33984,0.4102 0.02269,0.024 0.04329,0.052 0.0664,0.076 0.14224,0.1465 0.2919,0.2786 0.45118,0.3965 0.04114,0.03 0.08657,0.054 0.1289,0.082 0.12101,0.081 0.24577,0.1569 0.37696,0.2207 0.06033,0.029 0.12297,0.055 0.18554,0.08 0.1295,0.053 0.26483,0.096 0.4043,0.1309 0.06041,0.015 0.11929,0.033 0.18164,0.045 0.20455,0.039 0.4162,0.065 0.64258,0.065 l 152.5332015,0 0,0.1562 52.66016,-0.1562 9.41992,0 2.39258,0 23.59961,0 40.63867,0 154.15625,0 c 0.22649,0 0.43988,-0.026 0.64453,-0.065 0.0602,-0.011 0.11734,-0.028 0.17578,-0.043 0.14127,-0.035 0.27716,-0.08 0.4082,-0.1328 0.0626,-0.025 0.12522,-0.051 0.18555,-0.08 0.13119,-0.064 0.25595,-0.1394 0.37695,-0.2207 0.0423,-0.028 0.0878,-0.052 0.12891,-0.082 0.15861,-0.1174 0.30946,-0.2488 0.45117,-0.3945 0.0254,-0.026 0.0474,-0.057 0.0723,-0.084 0.11616,-0.1259 0.22855,-0.2591 0.33398,-0.4023 0.0374,-0.051 0.0713,-0.1054 0.10743,-0.1582 0.0866,-0.1268 0.17035,-0.2588 0.25,-0.3965 0.0376,-0.065 0.0771,-0.1281 0.11328,-0.1953 0.0374,-0.07 0.0715,-0.1449 0.10742,-0.2168 0.1458,-0.2919 0.27905,-0.5998 0.40234,-0.9239 0.0139,-0.036 0.0293,-0.071 0.043,-0.1074 0.0556,-0.1503 0.10079,-0.3132 0.15234,-0.4687 0.10945,-0.3308 0.21463,-0.6653 0.3086,-1.0137 0.0654,-0.2422 0.12607,-0.485 0.18555,-0.7324 0.0632,-0.2633 0.12565,-0.525 0.18359,-0.7911 0.27957,-1.2822 0.51256,-2.5743 0.77148,-3.6972 1.02077,-4.4268 1.59867,-7.3639 1.69532,-9.6465 0.005,-0.042 0.0151,-0.099 0.0195,-0.1406 -0.006,0.021 -0.0136,0.044 -0.0195,0.064 0.0749,-1.992 -0.21683,-3.4938 -0.95508,-5 -0.90884,-1.8541 -2.82281,-3.2812 -4.00586,-3.2812 l -152.39063,0 0,-135.9043 c 0,-1.1243 -0.75042,-2.0293 -1.68164,-2.0293 l -131.52929,0 z"
           id="path4715"
           inkscape:connector-curvature="0" />
        <path
           id="path5309"
           transform="translate(-147.22081,112.39947)"
           d="m 371.96094,737.9375 c -1.45455,-0.009 -2.91055,0.31956 -4.20117,0.99609 -2.41932,1.20395 -4.25566,3.50343 -4.89063,6.13086 -0.59882,2.39004 -0.19726,5.01315 1.11133,7.10352 0.59223,1.01279 1.41411,1.87872 2.33594,2.59765 2.0173,1.52689 4.66151,2.21424 7.16211,1.78516 1.69746,-0.28446 3.32286,-1.04011 4.61914,-2.17383 0.77947,-0.71567 1.49778,-1.51028 2.01172,-2.4414 0.99693,-1.69325 1.37824,-3.70937 1.17578,-5.65625 -0.22722,-2.1834 -1.26474,-4.27055 -2.86719,-5.77149 -1.44395,-1.39694 -3.36283,-2.28228 -5.35352,-2.52148 -0.36625,-0.039 -0.73532,-0.0518 -1.10351,-0.0488 z M 583.75,759.76758 c -58.1542,0.006 -116.3103,0.14656 -174.46289,0.0176 -44.95753,-0.005 -89.91357,0.007 -134.87109,0.0117 -99.05814,0.25761 -198.12767,-0.34669 -297.177739,0.98046 -2.346494,-0.20418 -4.647306,1.20227 -5.041015,3.27539 -2.604607,2.38517 -0.671672,7.40416 -1.541016,10.57227 -1.133414,109.0326 -0.493574,218.0792 -0.439453,327.1172 0.258493,27.077 -0.130121,54.1978 0.871094,81.2461 0.84028,1.8185 1.711301,-0.5396 2.765625,1.4726 3.781379,5.4901 11.609143,1.5891 17.2539059,2.7481 259.3757681,-0.1926 518.7661981,-0.3087 778.1328081,-0.5488 6.00064,-3.2611 4.97361,-9.4548 4.80079,-15.2754 0.007,-134.6662 0.85968,-269.34035 -0.0371,-404.00199 -1.17157,-7.40577 -10.19302,-6.82044 -15.79688,-6.82812 C 700.05777,759.89077 641.9042,759.76172 583.75,759.76758 z"
           style="fill:#ffffff;fill-opacity:1;stroke:none"
           inkscape:connector-curvature="0" />
      </g>
      <g
         transform="translate(-33.283377,2.365805)"
         id="g5324">
        <path
           style="fill:#000000;fill-opacity:1;stroke:#ffffff;stroke-width:2;stroke-linecap:butt;stroke-linejoin:miter;stroke-miterlimit:4;stroke-opacity:1;stroke-dasharray:none;stroke-dashoffset:0"
           d="m -389.20569,1196.9874 c -3.87091,0 -6.98828,3.2038 -6.98828,7.1817 l 0,287.791 c 0,3.9779 3.11737,7.1816 6.98828,7.1816 l 461.482433,0 c 3.87091,0 6.98828,-3.2037 6.98828,-7.1816 l 0,-287.791 c 0,-3.9779 -3.11737,-7.1817 -6.98828,-7.1817 l -461.482433,0 z m 230.74025,11.6465 a 8.1259386,8.1259386 0 0 1 8.12695,8.125 8.1259386,8.1259386 0 0 1 -8.12695,8.127 8.1259386,8.1259386 0 0 1 -8.125,-8.127 8.1259386,8.1259386 0 0 1 8.125,-8.125 z m -211.84377,25.586 423.68947,0 c 2.32254,0 4.1914,1.8708 4.1914,4.1933 l 0,234.6563 c 0,2.3226 -1.86886,4.1914 -4.1914,4.1914 l -423.68947,0 c -2.32254,0 -4.1914,-1.8688 -4.1914,-4.1914 l 0,-234.6563 c 0,-2.3225 1.86885,-4.1933 4.1914,-4.1933 z m -43.22851,265.6738 c -1.37267,0 -3.59395,1.4884 -4.64844,3.4219 -0.85564,1.5688 -1.19515,3.1333 -1.10937,5.207 -0.006,-0.019 -0.0134,-0.041 -0.0195,-0.061 0.005,0.039 0.0166,0.093 0.0215,0.1328 0.11004,2.3821 0.78004,5.4466 1.9668,10.0722 0.29628,1.1549 0.56259,2.4817 0.88086,3.8008 0.0771,0.3199 0.15891,0.6351 0.24414,0.9512 0.0612,0.2268 0.12475,0.4493 0.1914,0.6719 0.11331,0.379 0.24023,0.7426 0.37305,1.1015 0.0564,0.1521 0.1055,0.3117 0.16602,0.459 0.0181,0.044 0.0381,0.085 0.0566,0.1289 0.14195,0.3345 0.29723,0.6516 0.46484,0.9531 0.0416,0.075 0.0797,0.154 0.12305,0.2266 0.0409,0.068 0.0844,0.1331 0.12695,0.1992 0.0918,0.1429 0.18732,0.2805 0.28711,0.4121 0.0445,0.059 0.0887,0.1177 0.13477,0.1739 0.11807,0.1439 0.24341,0.2772 0.37304,0.4043 0.0337,0.033 0.0651,0.07 0.0996,0.1015 0.16442,0.1516 0.33749,0.29 0.52149,0.4121 0.0432,0.029 0.0905,0.051 0.13476,0.078 0.14453,0.088 0.29604,0.1658 0.45313,0.2343 0.0695,0.03 0.14081,0.058 0.21289,0.084 0.15141,0.055 0.30949,0.1 0.47265,0.1367 0.0671,0.015 0.13206,0.033 0.20117,0.045 0.23861,0.041 0.48578,0.066 0.75,0.066 l 226.01955,0 53.15039,0 226.019533,0 c 0.26423,0 0.51138,-0.025 0.75,-0.066 0.0691,-0.012 0.13411,-0.03 0.20117,-0.045 0.16317,-0.037 0.32125,-0.081 0.47266,-0.1367 0.0721,-0.026 0.14337,-0.054 0.21289,-0.084 0.15708,-0.068 0.30859,-0.1466 0.45312,-0.2343 0.0443,-0.027 0.0916,-0.05 0.13477,-0.078 0.18399,-0.1221 0.35707,-0.2605 0.52148,-0.4121 0.0345,-0.032 0.0659,-0.068 0.0996,-0.1015 0.12963,-0.1271 0.25498,-0.2604 0.37305,-0.4043 0.0461,-0.056 0.0903,-0.1153 0.13476,-0.1739 0.0998,-0.1316 0.19533,-0.2692 0.28711,-0.4121 0.0425,-0.066 0.086,-0.1308 0.12696,-0.1992 0.0434,-0.073 0.0814,-0.1516 0.12304,-0.2266 0.16762,-0.3015 0.3229,-0.6186 0.46485,-0.9531 0.0185,-0.044 0.0385,-0.085 0.0566,-0.1289 0.0605,-0.1473 0.10964,-0.3069 0.16601,-0.459 0.13283,-0.3589 0.25975,-0.7225 0.37305,-1.1015 0.0666,-0.2226 0.13016,-0.4451 0.19141,-0.6719 0.0852,-0.3161 0.16704,-0.6313 0.24414,-0.9512 0.31827,-1.3191 0.584567,-2.6459 0.880857,-3.8008 1.18676,-4.6256 1.85676,-7.6901 1.96679,-10.0722 0.005,-0.04 0.0168,-0.094 0.0215,-0.1328 -0.006,0.019 -0.0133,0.041 -0.0195,0.061 0.0858,-2.0737 -0.25374,-3.6382 -1.10938,-5.207 -1.05451,-1.9335 -3.275777,-3.4219 -4.648437,-3.4219 l -228.498043,0 -53.15039,0 -228.49806,0 z"
           id="path4761"
           inkscape:connector-curvature="0" />
        <path
           id="path5303"
           transform="translate(-113.93743,110.03367)"
           d="m -44.677734,1097.5371 c -3.060227,0 -6.028865,1.7119 -7.636719,4.3047 -1.16555,1.8359 -1.641023,4.0924 -1.304688,6.2422 0.415354,3.0843 2.565983,5.832 5.410157,7.0664 2.305742,1.0375 5.037553,1.0244 7.347656,0.01 2.826051,-1.1997 4.921215,-3.9146 5.412109,-6.9395 0.534886,-3.0771 -0.652918,-6.3832 -3.029297,-8.4121 -1.680742,-1.4578 -3.89119,-2.3276 -6.126953,-2.2695 l -0.04102,0 -0.03125,0 0,0 z m -23.878907,25.8399 c -63.093359,8e-4 -126.185679,0.024 -189.271479,0.039 -4.17683,2.3227 -3.78023,6.5539 -3.53126,10.707 0.1479,76.976 -0.36446,153.9656 0.47266,230.9336 3.03239,4.2908 9.19921,1.9523 13.58594,2.7383 106.05578,0.7276 212.117911,0.1666 318.17578,0.2012 32.31806,-0.2422 64.66198,0.323 96.96289,-0.7891 3.49645,0.2869 4.92225,-3.3439 4.07227,-6.3593 -0.16005,-75.7468 0.34745,-151.4985 -0.32422,-227.2422 -0.63776,-2.8389 0.8957,-7.1464 -1.73438,-9.1504 -16.28993,-1.5137 -32.76988,-0.6086 -49.13086,-0.9785 -63.090574,-0.079 -126.183979,-0.1005 -189.277341,-0.1 z"
           style="fill:#ffffff;fill-opacity:1;stroke:none"
           inkscape:connector-curvature="0" />
      </g>
      <g
         transform="matrix(1,0,0,-1,-184.53461,2654.7602)"
         id="g5359">
        <path
           inkscape:connector-curvature="0"
           style="fill:#000000;fill-opacity:1;stroke:none"
           d="m 973.53906,1045.7539 c -28.74706,0.037 -57.49317,0.8695 -86.24023,2.3848 -7.03371,0.3708 -12.72461,4.5093 -12.72461,10.1113 l 0,297.5781 c 0,5.602 5.68697,9.7932 12.72461,10.1133 59.18809,2.6924 116.60217,2.565 172.48237,0 7.0376,-0.323 12.7227,-4.5113 12.7227,-10.1133 l 0,-297.5781 c 0,-5.602 -5.692,-9.7042 -12.7227,-10.1113 -28.7469,-1.6644 -57.4951,-2.4221 -86.24214,-2.3848 z m 2.11328,12.3106 a 8.8961843,8.8961843 0 0 1 8.89649,8.8964 8.8961843,8.8961843 0 0 1 -8.89649,8.8965 8.8961843,8.8961843 0 0 1 -8.89648,-8.8965 8.8961843,8.8961843 0 0 1 8.89648,-8.8964 z m -82.07812,27.957 159.92968,0 c 6.5361,0 11.7988,3.7228 11.7988,8.3457 l 0,245.5703 c 0,4.6229 -5.2627,8.3437 -11.7988,8.3437 l -159.92968,0 c -6.53611,0 -11.79688,-3.7208 -11.79688,-8.3437 l 0,-245.5703 c 0,-4.6229 5.26077,-8.3457 11.79688,-8.3457 z m 82.07812,265.6328 a 5.1288208,5.1288208 0 0 1 5.12891,5.1289 5.1288208,5.1288208 0 0 1 -5.12891,5.1289 5.1288208,5.1288208 0 0 1 -5.1289,-5.1289 5.1288208,5.1288208 0 0 1 5.1289,-5.1289 z m -12.5957,3.7539 1.69727,0 c 0.2919,0 0.52734,0.2336 0.52734,0.5254 l 0,1.6973 c 0,0.2919 -0.23544,0.5273 -0.52734,0.5273 l -1.69727,0 c -0.2919,0 -0.52539,-0.2354 -0.52539,-0.5273 l 0,-1.6973 c 0,-0.2918 0.23349,-0.5254 0.52539,-0.5254 z"
           transform="translate(-147.22081,112.39947)"
           id="path4795" />
        <path
           inkscape:connector-curvature="0"
           style="fill:#ffffff;fill-opacity:1;stroke:none"
           d="m 975.50195,1058.002 c -3.1821,0.01 -6.26128,1.9053 -7.74414,4.7128 -1.34155,2.4545 -1.43572,5.5449 -0.21679,8.0664 1.2716,2.7348 4.00025,4.7231 6.99609,5.0821 2.74504,0.3493 5.63043,-0.6538 7.54297,-2.6602 1.90702,-1.9339 2.85004,-4.7671 2.45898,-7.457 -0.36297,-2.7989 -2.15031,-5.3503 -4.63672,-6.6777 -1.34216,-0.7285 -2.87192,-1.1107 -4.40039,-1.0664 z m -81.92773,28.0195 c -6.53611,0 -11.79688,3.7228 -11.79688,8.3457 l 0,245.5703 c 0,4.6229 5.26077,8.3437 11.79688,8.3437 l 159.92968,0 c 6.5361,0 11.7988,-3.7208 11.7988,-8.3437 l 0,-245.5703 c 0,-4.6229 -5.2627,-8.3457 -11.7988,-8.3457 l -159.92968,0 z m 82.02734,265.5449 c -1.47105,0.01 -2.92244,0.6764 -3.88086,1.793 -0.72648,0.8341 -1.18693,1.9051 -1.26758,3.0097 -0.026,0.5479 -0.0161,1.1022 0.12891,1.6348 0.34888,1.5073 1.42167,2.8166 2.81445,3.4824 0.67165,0.3238 1.41653,0.5011 2.16211,0.5117 0.59482,0 1.19101,-0.072 1.75391,-0.2695 1.55369,-0.5176 2.8267,-1.8067 3.31445,-3.3711 0.27021,-0.8271 0.29982,-1.7211 0.14844,-2.5742 -0.30436,-1.5941 -1.4028,-3.01 -2.86914,-3.7051 -0.71561,-0.3446 -1.51059,-0.5205 -2.30469,-0.5117 z m -11.89648,3.7461 c -0.24779,0 -0.4966,-2e-4 -0.74414,0.01 -0.21858,0.031 -0.4097,0.1885 -0.48633,0.3945 -0.0261,0.065 -0.0444,0.1343 -0.0371,0.2051 4.9e-4,0.585 -0.007,1.1689 0,1.7539 0.0119,0.2831 0.24852,0.5417 0.53125,0.5722 0.33276,0.01 0.6671,-2e-4 1,0.01 0.28924,0 0.57809,2e-4 0.86719,-0.01 0.25617,-0.027 0.47585,-0.2356 0.52734,-0.4863 0.0233,-0.088 0.007,-0.1813 0.0117,-0.2715 -0.002,-0.5328 0.004,-1.0648 -0.004,-1.5976 -0.006,-0.2647 -0.2159,-0.5016 -0.4707,-0.5606 -0.12239,-0.026 -0.24886,-0.013 -0.37305,-0.018 -0.27407,-8e-4 -0.5482,0 -0.82226,0 z"
           id="path4797"
           transform="translate(-147.22081,112.39947)" />
      </g>
      <g
         transform="matrix(0,-1,1,0,-939.73604,2047.8863)"
         id="g5337">
        <path
           style="fill:#000000;fill-opacity:1;stroke:none"
           d="m 724.84264,1487.0009 c -0.01,-14.8602 -0.4487,-29.5069 -1.2832,-43.9551 -0.2102,-3.6391 -2.9349,-6.5801 -6.5801,-6.5801 l -193.6328,0 c -3.6452,0 -6.3153,2.9446 -6.5801,6.5801 -2.1661,29.7309 -1.972,59.4606 0,89.1914 0.2412,3.6372 2.9349,6.5801 6.5801,6.5801 l 193.6328,0 c 3.6452,0 6.3717,-2.9408 6.5801,-6.5801 0.8759,-15.3034 1.2936,-30.376 1.2832,-45.2363 z m -3.9043,0.6406 a 3.3373186,3.3373186 0 0 1 -3.3379,3.3379 3.3373186,3.3373186 0 0 1 -3.3379,-3.3379 3.3373186,3.3373186 0 0 1 3.3379,-3.3379 3.3373186,3.3373186 0 0 1 3.3379,3.3379 z m -2.4434,7.0918 0,1.1035 c 0,0.19 -0.1518,0.3438 -0.3418,0.3438 l -1.1054,0 c -0.1899,0 -0.3418,-0.1538 -0.3418,-0.3438 l 0,-1.1035 c 0,-0.1899 0.1519,-0.3437 0.3418,-0.3437 l 1.1054,0 c 0.19,0 0.3418,0.1538 0.3418,0.3437 z m -6.4257,-48.4414 0,82.7012 c 0,3.3799 -2.4236,6.0996 -5.4317,6.0996 l -159.791,0 c -3.0081,0 -5.4297,-2.7197 -5.4297,-6.0996 l 0,-82.7012 c 0,-3.3799 2.4216,-6.1015 5.4297,-6.1015 l 159.791,0 c 3.0081,0 5.4317,2.7216 5.4317,6.1015 z m -177.2676,41.3496 a 5.7887382,5.7887382 0 0 1 -5.7891,5.7891 5.7887382,5.7887382 0 0 1 -5.7871,-5.7891 5.7887382,5.7887382 0 0 1 5.7871,-5.789 5.7887382,5.7887382 0 0 1 5.7891,5.789 z"
           id="path4831"
           inkscape:connector-curvature="0" />
        <path
           style="fill:#ffffff;fill-opacity:1;stroke:none"
           d="m 545.61903,1440.3057 0,0 c -2.23656,0.9173 -4.25813,3.0875 -3.93164,5.6582 -0.29688,26.5879 -0.0993,53.1782 -0.15625,79.7675 0.19209,2.1701 -0.57428,4.575 0.80664,6.4688 0.89243,1.5213 2.4495,2.9264 4.34766,2.6445 22.61962,0.3194 45.24367,0.1433 67.86523,0.2051 30.61399,-0.044 61.229,0.1184 91.8418,-0.1758 1.539,0.2422 2.95119,-0.4825 3.95508,-1.6035 1.7758,-1.2251 1.21743,-3.7427 1.48633,-5.5762 0.31295,-17.6586 0.0412,-35.3236 0.0918,-52.9843 -0.0219,-10.1286 -0.0129,-20.2607 -0.0547,-30.3868 -0.82197,-1.5977 -2.05839,-3.4974 -3.97461,-3.7754 -13.52782,-0.372 -27.06716,-0.1697 -40.59961,-0.2461 -40.55866,-0.01 -81.12154,-0.022 -121.67774,0 z m -16.6582,41.4688 c -1.82115,0 -3.61054,0.9171 -4.67578,2.3945 -0.72688,0.9992 -1.16467,2.2298 -1.12695,3.4727 -0.0385,1.2987 0.44052,2.5857 1.23242,3.6055 1.12603,1.4551 2.96449,2.3471 4.81055,2.2558 1.97558,-0.028 3.86832,-1.1775 4.86132,-2.8769 1.03154,-1.7092 1.09401,-3.9539 0.14649,-5.7129 -0.81891,-1.5621 -2.36529,-2.73 -4.10742,-3.0391 -0.37595,-0.07 -0.75826,-0.1024 -1.14063,-0.1 z m 188.60938,2.4395 c -1.1588,-2e-4 -2.28736,0.6425 -2.88672,1.6328 -0.36008,0.5835 -0.54398,1.2771 -0.50196,1.9629 0.04,1.2009 0.78555,2.3408 1.85547,2.8808 0.59255,0.3076 1.27452,0.4304 1.9375,0.3555 0.78546,-0.075 1.53442,-0.4551 2.08399,-1.0176 0.81006,-0.8257 1.1594,-2.0783 0.87109,-3.2012 -0.2815,-1.1999 -1.26686,-2.1972 -2.46094,-2.5 -0.2925,-0.077 -0.59603,-0.1156 -0.89843,-0.1132 z"
           id="path5329"
           inkscape:connector-curvature="0" />
      </g>
    </g>
  </g>
</svg>
