<?xml version="1.0" encoding="UTF-8" standalone="no"?>
<!-- Created with Inkscape (http://www.inkscape.org/) -->

<svg
   xmlns:dc="http://purl.org/dc/elements/1.1/"
   xmlns:cc="http://creativecommons.org/ns#"
   xmlns:rdf="http://www.w3.org/1999/02/22-rdf-syntax-ns#"
   xmlns:svg="http://www.w3.org/2000/svg"
   xmlns="http://www.w3.org/2000/svg"
   xmlns:sodipodi="http://sodipodi.sourceforge.net/DTD/sodipodi-0.dtd"
   xmlns:inkscape="http://www.inkscape.org/namespaces/inkscape"
   width="210mm"
   height="297mm"
   id="svg2"
   version="1.1"
   inkscape:version="0.48.5 r10040"
   sodipodi:docname="meche-cheveux.svg">
  <defs
     id="defs4">
    <inkscape:perspective
       sodipodi:type="inkscape:persp3d"
       inkscape:vp_x="0 : 526.18109 : 1"
       inkscape:vp_y="0 : 1000 : 0"
       inkscape:vp_z="744.09448 : 526.18109 : 1"
       inkscape:persp3d-origin="372.04724 : 350.78739 : 1"
       id="perspective3240" />
  </defs>
  <sodipodi:namedview
     id="base"
     pagecolor="#ffffff"
     bordercolor="#666666"
     borderopacity="1.0"
     inkscape:pageopacity="0.0"
     inkscape:pageshadow="2"
     inkscape:zoom="0.5454241"
     inkscape:cx="-145.39699"
     inkscape:cy="570.82595"
     inkscape:document-units="px"
     inkscape:current-layer="layer1"
     showgrid="false"
     inkscape:window-width="1670"
     inkscape:window-height="771"
     inkscape:window-x="105"
     inkscape:window-y="240"
     inkscape:window-maximized="0" />
  <metadata
     id="metadata7">
    <rdf:RDF>
      <cc:Work
         rdf:about="">
        <dc:format>image/svg+xml</dc:format>
        <dc:type
           rdf:resource="http://purl.org/dc/dcmitype/StillImage" />
        <dc:title></dc:title>
      </cc:Work>
    </rdf:RDF>
  </metadata>
  <g
     inkscape:label="Calque 1"
     inkscape:groupmode="layer"
     id="layer1">
    <path
       style="fill:#ac9393;stroke:#000000;stroke-width:1.33444129999999994px;stroke-linecap:butt;stroke-linejoin:miter;stroke-opacity:1"
       d="m 313.07765,585.55788 c 69.3417,-92.10668 -205.277,-404.02027 -78.52163,-399.82392 126.75538,4.19636 181.08502,340.81426 78.52163,399.82392 z"
       id="path2985"
       inkscape:connector-curvature="0"
       sodipodi:nodetypes="czc" />
    <path
       style="fill:#483737;stroke:#000000;stroke-width:1.33444129999999994px;stroke-linecap:butt;stroke-linejoin:miter;stroke-opacity:1"
       d="M 130.28057,582.08153 C 233.20136,530.12747 124.80014,128.93588 236.63638,188.74548 348.47263,248.5551 248.36507,574.50264 130.28057,582.08153 z"
       id="path2985-3"
       inkscape:connector-curvature="0"
       sodipodi:nodetypes="czc" />
    <path
       style="fill:#6c5353;stroke:#000000;stroke-width:1.3344413px;stroke-linecap:butt;stroke-linejoin:miter;stroke-opacity:1"
       d="m 247.97601,534.96113 c 75.96164,-86.72798 -174.84487,-418.09124 -48.74663,-404.535 126.09823,13.55625 155.39208,353.26965 48.74663,404.535 z"
       id="path2985-3-6"
       inkscape:connector-curvature="0"
       sodipodi:nodetypes="czc" />
    <path
       style="fill:#ac9393;stroke:#ffffff;stroke-width:1.00382698px;stroke-linecap:butt;stroke-linejoin:miter;stroke-opacity:1"
       d="M 301.72304,326.2129 C 345.70788,240.72782 56.68077,198.78469 166.36779,139.55137 276.05481,80.318076 379.88582,243.19485 301.72304,326.2129 z"
       id="path2985-3-7-5"
       inkscape:connector-curvature="0"
       sodipodi:nodetypes="czc" />
    <path
       style="fill:#483737;stroke:#ffffff;stroke-width:1.3344413px;stroke-linecap:butt;stroke-linejoin:miter;stroke-opacity:1"
       d="M 180.69589,531.81366 C 266.33952,454.6315 56.287482,96.045874 179.91288,124.35296 c 123.62543,28.30715 112.72218,369.10686 0.78301,407.4607 z"
       id="path2985-3-7"
       inkscape:connector-curvature="0"
       sodipodi:nodetypes="czc" />
    <path
       style="fill:#6c5353;stroke:#ffffff;stroke-width:0.53339744px;stroke-linecap:butt;stroke-linejoin:miter;stroke-opacity:1"
       d="M 107.06331,222.38985 C 74.793607,186.12917 238.88465,138.19113 170.64146,120.75367 102.39828,103.31623 55.191539,190.61605 107.06331,222.38985 z"
       id="path2985-3-7-5-3"
       inkscape:connector-curvature="0"
       sodipodi:nodetypes="czc" />
    <path
       style="fill:#ffaaaa;stroke:#000000;stroke-width:0.4433642px;stroke-linecap:butt;stroke-linejoin:miter;stroke-opacity:1"
       d="m 470.54061,448.07463 c -0.81906,-20.22961 -0.34929,-85.5725 -0.28738,-88.80549 0.22028,-11.50539 14.28826,-23.38239 18.96815,-28.16485 6.69381,-6.84051 10.63367,-24.1413 10.63367,-24.1413 0,0 7.66108,1.59484 15.99558,0.32228 -0.57479,10.79807 10.56992,19.98425 15.69374,26.00513 4.085,4.80019 17.72735,17.93302 17.72842,24.6608 l 0.0144,90.98561 c 0.002,7.64377 -79.07713,5.85978 -78.74662,-0.86218 z"
       id="path3238"
       inkscape:connector-curvature="0"
       sodipodi:nodetypes="cssccsssc" />
    <path
       style="fill:#806600;stroke:#000000;stroke-width:0.24125907px;stroke-linecap:butt;stroke-linejoin:miter;stroke-opacity:1"
       d="m 399.7668,385.77497 c 0,0 21.53755,19.2682 25.90887,18.54582 4.37133,-0.72237 48.06813,-50.91255 46.42734,-54.66976 -1.64079,-3.75722 -26.6823,-22.503 -26.6823,-22.503 0,0 21.12978,19.04623 18.25285,21.75963 -2.87694,2.7134 -25.38156,-12.1564 -25.38156,-12.1564 0,0 19.76193,17.40327 17.29569,20.28334 -2.16694,2.53055 -23.92968,-11.8921 -23.92968,-11.8921 0,0 21.10376,16.50059 18.04829,20.4778 -2.8429,3.70055 -24.74241,-11.95019 -24.74241,-11.95019 0,0 19.83028,16.13067 17.50778,19.33061 -1.66812,2.29833 -23.32596,-11.57609 -23.32596,-11.57609 0,0 20.11175,16.71856 18.33828,19.0103 -1.7735,2.29174 -22.79144,-13.01186 -22.79144,-13.01186 0,0 20.60175,16.25034 18.71649,18.87566 -1.65355,2.30266 -23.51521,-12.9419 -23.51521,-12.9419 0,0 18.80224,16.34655 17.04569,18.53661 -1.84308,2.29794 -22.67837,-11.88866 -22.67837,-11.88866 0,0 20.19488,14.82119 17.5525,17.89665 -2.64238,3.07545 -22.04685,-12.12646 -22.04685,-12.12646 z"
       id="path3236"
       inkscape:connector-curvature="0"
       sodipodi:nodetypes="csscscscscsczcscsczc" />
    <g
       id="g3225"
       transform="matrix(0.32321071,-0.27398935,0.27398935,0.32321071,62.443723,389.20207)">
      <path
         sodipodi:nodetypes="zzsssczz"
         inkscape:connector-curvature="0"
         id="path3107-1"
         d="m 611.08052,628.77068 c -11.35007,22.10407 -56.01094,59.25314 -83.44352,62.76065 -27.43258,3.50751 -41.51006,-12.1071 -39.78047,-34.59172 1.72958,-22.48462 15.56627,-39.78048 34.59172,-39.78048 19.02544,0 62.2175,0.80819 75.92567,-31.26515 l 96.41541,-225.58545 c 0.43194,16.48111 -1.23715,42.56061 -9.44327,62.75307 -8.20613,20.19246 -62.91548,183.60502 -74.26554,205.70908 z"
         style="fill:#c8beb7;stroke:#000000;stroke-width:1px;stroke-linecap:butt;stroke-linejoin:miter;stroke-opacity:1" />
      <path
         transform="matrix(-1.4565539,0,0,1.3670916,1456.7998,-410.12805)"
         d="m 656.90489,779.51813 c 0,9.35069 -6.84445,16.93093 -15.28752,16.93093 -8.44307,0 -15.28752,-7.58024 -15.28752,-16.93093 0,-9.3507 6.84445,-16.93094 15.28752,-16.93094 8.44307,0 15.28752,7.58024 15.28752,16.93094 z"
         sodipodi:ry="16.930933"
         sodipodi:rx="15.287524"
         sodipodi:cy="779.51813"
         sodipodi:cx="641.61737"
         id="path3111-2"
         style="fill:#ffffff;stroke:#000000;stroke-width:1;stroke-miterlimit:4;stroke-dasharray:none"
         sodipodi:type="arc" />
      <g
         transform="matrix(0.75214983,0.65899214,-0.65899214,0.75214983,652.97101,-319.95333)"
         id="g3203"
         style="fill:#c8beb7">
        <path
           style="fill:#c8beb7;stroke:#000000;stroke-width:1px;stroke-linecap:butt;stroke-linejoin:miter;stroke-opacity:1"
           d="m 554.77368,756.10744 c 11.35007,22.10407 56.01094,59.25314 83.44352,62.76065 27.43258,3.50751 41.51006,-12.1071 39.78047,-34.59172 -1.72958,-22.48462 -15.56627,-39.78048 -34.59172,-39.78048 -19.02544,0 -62.2175,0.80819 -75.92567,-31.26515 L 471.06487,487.64529 c -0.43194,16.48111 1.23715,42.56061 9.44327,62.75307 8.20613,20.19246 62.91548,183.60502 74.26554,205.70908 z"
           id="path3107-1-9"
           inkscape:connector-curvature="0"
           sodipodi:nodetypes="zzsssczz" />
        <path
           sodipodi:type="arc"
           style="fill:#ffffff;stroke:#000000;stroke-width:1;stroke-miterlimit:4;stroke-dasharray:none"
           id="path3111-2-3"
           sodipodi:cx="641.61737"
           sodipodi:cy="779.51813"
           sodipodi:rx="15.287524"
           sodipodi:ry="16.930933"
           d="m 656.90489,779.51813 c 0,9.35069 -6.84445,16.93093 -15.28752,16.93093 -8.44307,0 -15.28752,-7.58024 -15.28752,-16.93093 0,-9.3507 6.84445,-16.93094 15.28752,-16.93094 8.44307,0 15.28752,7.58024 15.28752,16.93094 z"
           transform="matrix(1.4565539,0,0,1.3670916,-290.94556,-282.79129)" />
      </g>
      <path
         transform="translate(351.33384,-132.23635)"
         d="m 248.43053,750.76202 c 0,4.05032 -3.28343,7.33375 -7.33374,7.33375 -4.05032,0 -7.33375,-3.28343 -7.33375,-7.33375 0,-4.05031 3.28343,-7.33374 7.33375,-7.33374 4.05031,0 7.33374,3.28343 7.33374,7.33374 z"
         sodipodi:ry="7.3337426"
         sodipodi:rx="7.3337426"
         sodipodi:cy="750.76202"
         sodipodi:cx="241.09679"
         id="path3219"
         style="fill:#808080;fill-opacity:1;stroke:#666666;stroke-width:1;stroke-miterlimit:4;stroke-dasharray:none"
         sodipodi:type="arc" />
      <path
         inkscape:connector-curvature="0"
         id="path3223"
         d="m 588.90551,616.11187 6.48217,4.86163"
         style="fill:none;stroke:#000000;stroke-width:1px;stroke-linecap:butt;stroke-linejoin:miter;stroke-opacity:1" />
    </g>
  </g>
</svg>
